<mxfile host="Electron" modified="2023-07-31T19:30:55.516Z" agent="Mozilla/5.0 (Windows NT 10.0; Win64; x64) AppleWebKit/537.36 (KHTML, like Gecko) draw.io/21.3.7 Chrome/112.0.5615.204 Electron/24.5.0 Safari/537.36" etag="b2tWkiwsL6hAovqzyFrX" version="21.3.7" type="device">
  <diagram id="yY089J-aIF6e-MrQwjvt" name="Страница 1">
    <mxGraphModel dx="980" dy="566" grid="1" gridSize="10" guides="1" tooltips="1" connect="1" arrows="1" fold="1" page="1" pageScale="1" pageWidth="1169" pageHeight="827" math="0" shadow="0">
      <root>
        <mxCell id="0" />
        <mxCell id="1" parent="0" />
        <mxCell id="n2xAmgNtOY9PT-zUKLoa-8" style="edgeStyle=orthogonalEdgeStyle;rounded=0;orthogonalLoop=1;jettySize=auto;html=1;exitX=1.01;exitY=0.38;exitDx=0;exitDy=0;entryX=0;entryY=0.5;entryDx=0;entryDy=0;startArrow=none;startFill=0;endArrow=none;endFill=0;exitPerimeter=0;" parent="1" source="ISTWP1qSsfGEcgpO0xII-3" target="qbj8UxB_bABXDXe74kNN-1" edge="1">
          <mxGeometry relative="1" as="geometry">
            <Array as="points">
              <mxPoint x="380" y="430" />
              <mxPoint x="380" y="359" />
              <mxPoint x="400" y="359" />
            </Array>
          </mxGeometry>
        </mxCell>
        <mxCell id="n2xAmgNtOY9PT-zUKLoa-10" style="edgeStyle=orthogonalEdgeStyle;rounded=0;orthogonalLoop=1;jettySize=auto;html=1;exitX=0.998;exitY=0.627;exitDx=0;exitDy=0;entryX=0;entryY=0.5;entryDx=0;entryDy=0;endArrow=none;endFill=0;exitPerimeter=0;" parent="1" source="ISTWP1qSsfGEcgpO0xII-3" target="ISTWP1qSsfGEcgpO0xII-13" edge="1">
          <mxGeometry relative="1" as="geometry">
            <Array as="points">
              <mxPoint x="380" y="450" />
              <mxPoint x="380" y="500" />
            </Array>
          </mxGeometry>
        </mxCell>
        <mxCell id="n2xAmgNtOY9PT-zUKLoa-12" style="edgeStyle=orthogonalEdgeStyle;rounded=0;orthogonalLoop=1;jettySize=auto;html=1;exitX=1;exitY=0.75;exitDx=0;exitDy=0;" parent="1" source="ISTWP1qSsfGEcgpO0xII-3" edge="1">
          <mxGeometry relative="1" as="geometry">
            <mxPoint x="319.96153846153845" y="459.6923076923076" as="targetPoint" />
          </mxGeometry>
        </mxCell>
        <mxCell id="ISTWP1qSsfGEcgpO0xII-3" value="api gateway&lt;br&gt;&lt;i&gt;(spring)&lt;/i&gt;" style="html=1;strokeColor=#66FFFF;fillColor=none;" parent="1" vertex="1">
          <mxGeometry x="240" y="400" width="80" height="80" as="geometry" />
        </mxCell>
        <mxCell id="3FGFGwQInpcxt64Ezk21-5" style="edgeStyle=orthogonalEdgeStyle;rounded=0;orthogonalLoop=1;jettySize=auto;html=1;exitX=1;exitY=0.5;exitDx=0;exitDy=0;endArrow=none;endFill=0;entryX=1;entryY=0.5;entryDx=0;entryDy=0;" parent="1" source="ISTWP1qSsfGEcgpO0xII-4" target="ISTWP1qSsfGEcgpO0xII-30" edge="1">
          <mxGeometry relative="1" as="geometry">
            <mxPoint x="875" y="320" as="targetPoint" />
            <Array as="points">
              <mxPoint x="720" y="620" />
              <mxPoint x="720" y="500" />
            </Array>
          </mxGeometry>
        </mxCell>
        <mxCell id="n2xAmgNtOY9PT-zUKLoa-14" style="edgeStyle=orthogonalEdgeStyle;rounded=0;orthogonalLoop=1;jettySize=auto;html=1;exitX=0;exitY=0.5;exitDx=0;exitDy=0;entryX=1.009;entryY=0.848;entryDx=0;entryDy=0;entryPerimeter=0;endArrow=none;endFill=0;" parent="1" source="ISTWP1qSsfGEcgpO0xII-4" target="ISTWP1qSsfGEcgpO0xII-3" edge="1">
          <mxGeometry relative="1" as="geometry">
            <Array as="points">
              <mxPoint x="360" y="620" />
              <mxPoint x="360" y="470" />
              <mxPoint x="321" y="470" />
            </Array>
          </mxGeometry>
        </mxCell>
        <mxCell id="ISTWP1qSsfGEcgpO0xII-4" value="chat service&lt;br&gt;&lt;i style=&quot;&quot;&gt;(spring)&lt;/i&gt;" style="html=1;strokeColor=#66FFFF;fillColor=none;" parent="1" vertex="1">
          <mxGeometry x="400" y="580" width="80" height="80" as="geometry" />
        </mxCell>
        <mxCell id="ISTWP1qSsfGEcgpO0xII-13" value="sse service&lt;br&gt;&lt;i&gt;(spring)&lt;/i&gt;" style="whiteSpace=wrap;html=1;aspect=fixed;strokeColor=#66FFFF;fillColor=none;" parent="1" vertex="1">
          <mxGeometry x="400" y="460" width="80" height="80" as="geometry" />
        </mxCell>
        <mxCell id="ISTWP1qSsfGEcgpO0xII-19" value="messege queue&lt;br&gt;&lt;i&gt;(rabbitmq)&lt;/i&gt;" style="rounded=0;whiteSpace=wrap;html=1;strokeColor=#66FFFF;fillColor=none;" parent="1" vertex="1">
          <mxGeometry x="550" y="460" width="105" height="30" as="geometry" />
        </mxCell>
        <mxCell id="n2xAmgNtOY9PT-zUKLoa-11" style="edgeStyle=orthogonalEdgeStyle;rounded=0;orthogonalLoop=1;jettySize=auto;html=1;exitX=0;exitY=0.5;exitDx=0;exitDy=0;entryX=1;entryY=0.5;entryDx=0;entryDy=0;endArrow=none;endFill=0;" parent="1" source="ISTWP1qSsfGEcgpO0xII-30" target="ISTWP1qSsfGEcgpO0xII-13" edge="1">
          <mxGeometry relative="1" as="geometry" />
        </mxCell>
        <mxCell id="ISTWP1qSsfGEcgpO0xII-30" value="&lt;font style=&quot;font-size: 9px;&quot;&gt;new message&lt;/font&gt;" style="rounded=0;whiteSpace=wrap;html=1;strokeColor=#66FFFF;fillColor=none;" parent="1" vertex="1">
          <mxGeometry x="550" y="490" width="105" height="20" as="geometry" />
        </mxCell>
        <mxCell id="ISTWP1qSsfGEcgpO0xII-40" value="" style="endArrow=none;startArrow=none;html=1;rounded=0;entryX=0;entryY=0.5;entryDx=0;entryDy=0;startFill=0;endFill=0;" parent="1" target="ISTWP1qSsfGEcgpO0xII-3" edge="1">
          <mxGeometry width="50" height="50" relative="1" as="geometry">
            <mxPoint x="160" y="440" as="sourcePoint" />
            <mxPoint x="705" y="470" as="targetPoint" />
          </mxGeometry>
        </mxCell>
        <mxCell id="n2xAmgNtOY9PT-zUKLoa-16" style="edgeStyle=orthogonalEdgeStyle;rounded=0;orthogonalLoop=1;jettySize=auto;html=1;exitX=0.5;exitY=1;exitDx=0;exitDy=0;entryX=0.5;entryY=0;entryDx=0;entryDy=0;endArrow=none;endFill=0;" parent="1" source="FWDkpfIc_kf_TAcyv8ec-2" target="qbj8UxB_bABXDXe74kNN-1" edge="1">
          <mxGeometry relative="1" as="geometry" />
        </mxCell>
        <mxCell id="FWDkpfIc_kf_TAcyv8ec-2" value="auth &lt;br&gt;management &lt;br&gt;service&lt;br&gt;&lt;i&gt;(spring)&lt;/i&gt;" style="html=1;strokeColor=#66FFFF;fillColor=none;" parent="1" vertex="1">
          <mxGeometry x="400" y="220" width="80" height="80" as="geometry" />
        </mxCell>
        <mxCell id="qbj8UxB_bABXDXe74kNN-1" value="user &lt;br&gt;management &lt;br&gt;service&lt;br&gt;&lt;i&gt;(spring)&lt;/i&gt;" style="html=1;strokeColor=#66FFFF;fillColor=none;" parent="1" vertex="1">
          <mxGeometry x="400" y="340" width="80" height="80" as="geometry" />
        </mxCell>
        <mxCell id="2MMTQavIdxfNkU22Tnsl-3" value="&lt;font style=&quot;font-size: 8px;&quot;&gt;http&lt;/font&gt;" style="text;html=1;strokeColor=none;fillColor=none;align=center;verticalAlign=middle;whiteSpace=wrap;rounded=0;" parent="1" vertex="1">
          <mxGeometry x="193" y="428" width="15" height="10" as="geometry" />
        </mxCell>
        <mxCell id="n2xAmgNtOY9PT-zUKLoa-13" style="edgeStyle=orthogonalEdgeStyle;rounded=0;orthogonalLoop=1;jettySize=auto;html=1;exitX=0.996;exitY=0.138;exitDx=0;exitDy=0;entryX=0;entryY=0.5;entryDx=0;entryDy=0;endArrow=none;endFill=0;exitPerimeter=0;" parent="1" source="ISTWP1qSsfGEcgpO0xII-3" target="FWDkpfIc_kf_TAcyv8ec-2" edge="1">
          <mxGeometry relative="1" as="geometry" />
        </mxCell>
        <mxCell id="SOo7GuvmK70jAdl1FkUy-1" value="&lt;font style=&quot;font-size: 8px;&quot;&gt;http&lt;/font&gt;" style="text;html=1;strokeColor=none;fillColor=none;align=center;verticalAlign=middle;whiteSpace=wrap;rounded=0;" parent="1" vertex="1">
          <mxGeometry x="344" y="399" width="15" height="10" as="geometry" />
        </mxCell>
        <mxCell id="SOo7GuvmK70jAdl1FkUy-2" value="&lt;font style=&quot;font-size: 8px;&quot;&gt;http&lt;/font&gt;" style="text;html=1;strokeColor=none;fillColor=none;align=center;verticalAlign=middle;whiteSpace=wrap;rounded=0;" parent="1" vertex="1">
          <mxGeometry x="364" y="419" width="15" height="10" as="geometry" />
        </mxCell>
        <mxCell id="SOo7GuvmK70jAdl1FkUy-3" value="&lt;font style=&quot;font-size: 8px;&quot;&gt;http&lt;/font&gt;" style="text;html=1;strokeColor=none;fillColor=none;align=center;verticalAlign=middle;whiteSpace=wrap;rounded=0;" parent="1" vertex="1">
          <mxGeometry x="364" y="438" width="15" height="10" as="geometry" />
        </mxCell>
        <mxCell id="SOo7GuvmK70jAdl1FkUy-4" value="&lt;font style=&quot;font-size: 8px;&quot;&gt;http&lt;/font&gt;" style="text;html=1;strokeColor=none;fillColor=none;align=center;verticalAlign=middle;whiteSpace=wrap;rounded=0;" parent="1" vertex="1">
          <mxGeometry x="345" y="458" width="15" height="10" as="geometry" />
        </mxCell>
        <mxCell id="SOo7GuvmK70jAdl1FkUy-5" value="&lt;font style=&quot;font-size: 8px;&quot;&gt;http&lt;/font&gt;" style="text;html=1;strokeColor=none;fillColor=none;align=center;verticalAlign=middle;whiteSpace=wrap;rounded=0;" parent="1" vertex="1">
          <mxGeometry x="441" y="315" width="15" height="10" as="geometry" />
        </mxCell>
        <mxCell id="SOo7GuvmK70jAdl1FkUy-6" value="" style="html=1;strokeColor=#66FFFF;fillColor=none;" parent="1" vertex="1">
          <mxGeometry x="80" y="400" width="80" height="80" as="geometry" />
        </mxCell>
        <mxCell id="SOo7GuvmK70jAdl1FkUy-7" value="client" style="shape=umlActor;verticalLabelPosition=bottom;verticalAlign=top;html=1;outlineConnect=0;fillColor=none;" parent="1" vertex="1">
          <mxGeometry x="107.5" y="405" width="25" height="53" as="geometry" />
        </mxCell>
        <mxCell id="2Feq4DsOUMYAdtr5AeZz-4" style="edgeStyle=orthogonalEdgeStyle;rounded=0;orthogonalLoop=1;jettySize=auto;html=1;exitX=1;exitY=0.5;exitDx=0;exitDy=0;endArrow=none;endFill=0;" edge="1" parent="1" source="2Feq4DsOUMYAdtr5AeZz-1">
          <mxGeometry relative="1" as="geometry">
            <mxPoint x="720" y="520.1904761904761" as="targetPoint" />
          </mxGeometry>
        </mxCell>
        <mxCell id="2Feq4DsOUMYAdtr5AeZz-5" style="edgeStyle=orthogonalEdgeStyle;rounded=0;orthogonalLoop=1;jettySize=auto;html=1;exitX=0;exitY=0.5;exitDx=0;exitDy=0;entryX=1;entryY=0.75;entryDx=0;entryDy=0;endArrow=none;endFill=0;" edge="1" parent="1" source="2Feq4DsOUMYAdtr5AeZz-1" target="ISTWP1qSsfGEcgpO0xII-13">
          <mxGeometry relative="1" as="geometry" />
        </mxCell>
        <mxCell id="2Feq4DsOUMYAdtr5AeZz-1" value="&lt;font style=&quot;font-size: 9px;&quot;&gt;conversation invite&lt;/font&gt;" style="rounded=0;whiteSpace=wrap;html=1;strokeColor=#66FFFF;fillColor=none;" vertex="1" parent="1">
          <mxGeometry x="550" y="510" width="105" height="20" as="geometry" />
        </mxCell>
      </root>
    </mxGraphModel>
  </diagram>
</mxfile>
